<svg width="233" height="269" viewBox="0 0 233 269" fill="none" xmlns="http://www.w3.org/2000/svg">
<path d="M233 268.003L154.068 165.35C154.068 165.35 157.408 128.199 147.036 111.828C136.664 95.4747 112.58 64.9736 112.58 64.9736C112.58 64.9736 106.286 68.6076 109.24 76.6342C112.211 84.6785 119.981 94.3457 119.981 94.3457C119.981 94.3457 129.984 123.347 102.559 123.347C75.1352 123.347 86.2455 88.9476 86.2455 88.9476C86.2455 88.9476 97.0218 78.6629 102.559 72.4004C109.099 65.0089 103.649 57.4409 103.649 57.4409L76.313 81.0092C72.1818 84.5726 69.6504 89.6356 69.2988 95.1043C68.912 101.19 68.4725 109.57 68.4725 117.05C68.4725 117.05 56.6239 111.475 45.8652 97.7151C35.124 83.9552 24.3653 67.0552 8.43821 71.6066L14.7317 83.2143C14.7317 83.2143 5.92432 79.8978 0 84.7314L19.8825 108.406C19.8825 108.406 10.8466 106.183 6.96152 110.081C6.96152 110.081 25.297 132.115 35.0361 145.504C44.7576 158.894 58.9444 181.474 105.899 184.544L131.46 268.021H233V268.003Z" fill="#FCD6C2"/>
<path d="M19.9001 108.388C25.7366 110.064 44.2655 137.672 56.6239 142.417" stroke="#ED9389" stroke-width="1.1242" stroke-miterlimit="10"/>
<path d="M14.7493 83.1967C21.2713 85.8075 50.3831 124.459 65.1148 132.133" stroke="#ED9389" stroke-width="1.1242" stroke-miterlimit="10"/>
<path d="M72.2873 123.453L51.7192 148.362" stroke="#ED9389" stroke-width="1.1242" stroke-miterlimit="10"/>
<path d="M119.998 123.453C119.998 123.453 114.074 143.617 125.184 157.941" stroke="#ED9389" stroke-width="1.1242" stroke-miterlimit="10"/>
<path d="M66.9958 142.417C66.9958 142.417 109.046 136.755 126.274 167.609" stroke="#ED9389" stroke-width="1.1242" stroke-miterlimit="10"/>
<path d="M107.341 24.7346V90.1296" stroke="#20425C" stroke-width="0.6668" stroke-miterlimit="10"/>
<path d="M107.341 53.4541C107.341 53.4541 118.223 29.286 144.539 38.3887C139.406 40.0646 137.613 48.4793 126.749 49.2379C115.814 50.0141 110.998 51.0725 107.341 53.4541Z" fill="#27705D"/>
<path d="M107.341 53.4541C107.341 53.4541 96.4592 29.286 70.1426 38.3887C75.2758 40.0646 77.0689 48.4793 87.9331 49.2379C98.8676 50.0141 103.684 51.0725 107.341 53.4541Z" fill="#27705D"/>
<path d="M118.275 11.6627C118.275 11.6627 116.236 2.2248 107.341 0.884094C98.4457 2.24245 96.4065 11.6627 96.4065 11.6627C94.5606 7.19955 87.7046 3.86541 83.6261 7.94047C86.2279 10.3573 86.9662 17.4136 87.5112 21.1359C88.0737 24.8581 90.236 31.2971 95.6681 34.3313C102.278 38.0359 107.341 42.6931 107.341 42.6931C107.341 42.6931 112.404 38.0359 119.014 34.3313C124.428 31.2971 126.608 24.8581 127.171 21.1359C127.733 17.4136 128.472 10.3573 131.056 7.94047C126.977 3.86541 120.121 7.19955 118.275 11.6627Z" fill="#CC2554"/>
</svg>
