<svg width="258" height="271" viewBox="0 0 258 271" fill="none" xmlns="http://www.w3.org/2000/svg">
<path d="M122.407 0.316548C159.029 -1.43161 180.046 25.7937 180.046 66.1446C180.046 90.7907 170.254 113.488 170.254 113.488L172.802 149.999C173.289 157.106 177.326 163.497 183.54 167.022L257.5 194.76V256.478C257.5 264.21 251.232 270.478 243.5 270.478H0L6.15617 236.518C10.0789 214.967 25.6841 197.399 46.6151 190.98L96.0362 175.877C100.073 174.645 102.908 171.034 103.195 166.821L104.512 146.961C104.512 146.961 85.1841 140.14 80.1733 119.019C75.1625 97.8693 78.5698 90.3035 73.7308 75.3152C66.7157 53.5349 69.9512 2.80982 122.407 0.316548Z" fill="#9EA9F0"/>
<path d="M104.512 146.531C115.879 151.116 135.607 149.253 148.006 134.953C148.006 134.953 131.427 164.814 103.309 164.786L104.512 146.531Z" fill="#6F78B6"/>
<path d="M133.517 7.62391C157.025 11.8367 167.104 33.1871 163.525 47.2869C159.946 61.3868 140.847 56.343 126.588 52.5887C112.329 48.8058 96.7806 60.5844 86.3008 47.2869C75.3915 33.5023 97.6396 1.23312 133.517 7.62391Z" fill="url(#paint0_linear_5_21)"/>
<path d="M123.868 23.2713C118.628 17.5397 109.437 20.5201 113.016 30.8944C115.65 38.5175 123.868 41.9279 123.868 41.9279C123.868 41.9279 132.086 38.4889 134.72 30.8944C138.299 20.5201 129.136 17.5397 123.868 23.2713Z" fill="#CC2554"/>
<path d="M159.344 79.4702C162.065 72.3343 171.514 72.105 171.743 82.8232C171.943 93.5414 169.967 104.976 161.148 104.288" stroke="#6F78B6" stroke-width="1.5" stroke-miterlimit="10"/>
<path d="M98.6991 81.5909L100.589 88.3256L98.9854 109.533C98.8422 111.453 100.36 113.115 102.307 113.115H110.066" stroke="#6F78B6" stroke-width="1.5" stroke-miterlimit="10"/>
<path d="M100.847 120.251C100.847 120.251 110.926 122.63 127.304 120.251" stroke="#6F78B6" stroke-width="1.5" stroke-miterlimit="10"/>
<path d="M92.3138 84.3994C92.3138 84.3994 87.4175 87.7524 78.1689 84.3994" stroke="#6F78B6" stroke-width="1.5" stroke-miterlimit="10"/>
<path d="M113.646 84.3994C113.646 84.3994 121.749 89.8731 134.118 84.3994" stroke="#6F78B6" stroke-width="1.5" stroke-miterlimit="10"/>
<defs>
<linearGradient id="paint0_linear_5_21" x1="83.5154" y1="31.7307" x2="164.246" y2="31.7307" gradientUnits="userSpaceOnUse">
<stop stop-color="#E0E5F1"/>
<stop offset="1" stop-color="#F3F5F7"/>
</linearGradient>
</defs>
</svg>
