<svg width="272" height="192" viewBox="0 0 272 192" fill="none" xmlns="http://www.w3.org/2000/svg">
<path d="M230.094 186.214H271.4L252.146 20.2702L230.094 186.214Z" fill="#E0E0E0"/>
<path d="M26.8871 20.2702L0 188.164L229.436 191.152L252.146 20.2702H26.8871Z" fill="#FAFAFA"/>
<path d="M241.92 97.1901C241.92 97.3011 190.921 97.3962 128.031 97.3962C65.1172 97.3962 14.1331 97.3011 14.1331 97.1901C14.1331 97.0792 65.1172 96.9841 128.031 96.9841C190.929 96.9841 241.92 97.0712 241.92 97.1901Z" stroke="#E0E0E0" stroke-miterlimit="10"/>
<path d="M237.299 125.631C237.299 125.742 186.299 125.837 123.41 125.837C60.496 125.837 9.51192 125.742 9.51192 125.631C9.51192 125.52 60.496 125.425 123.41 125.425C186.299 125.425 237.299 125.52 237.299 125.631Z" stroke="#E0E0E0" stroke-miterlimit="10"/>
<path d="M232.67 154.08C232.67 154.19 181.678 154.286 118.78 154.286C55.8668 154.286 4.88278 154.19 4.88278 154.08C4.88278 153.969 55.8668 153.873 118.78 153.873C181.678 153.873 232.67 153.969 232.67 154.08Z" stroke="#E0E0E0" stroke-miterlimit="10"/>
<path d="M32.2138 187.197C32.1028 187.181 36.2643 160.096 41.5117 126.701C46.7591 93.2982 51.1108 66.2446 51.2218 66.2684C51.3328 66.2843 47.1713 93.3695 41.9239 126.764C36.6685 160.159 32.3247 187.213 32.2138 187.197Z" stroke="#E0E0E0" stroke-miterlimit="10"/>
<path d="M67.2653 187.197C67.1543 187.181 71.3158 160.096 76.5632 126.701C81.8106 93.2982 86.1624 66.2446 86.2733 66.2684C86.3843 66.2843 82.2228 93.3695 76.9754 126.764C71.728 160.159 67.3763 187.213 67.2653 187.197Z" stroke="#E0E0E0" stroke-miterlimit="10"/>
<path d="M99.8358 185.984C99.7248 185.968 103.847 159.153 109.039 126.099C114.238 93.0366 118.543 66.2526 118.654 66.2684C118.765 66.2843 114.643 93.1 109.451 126.162C104.251 159.216 99.9467 186 99.8358 185.984Z" stroke="#E0E0E0" stroke-miterlimit="10"/>
<path d="M132.073 186.943C131.962 186.927 136.116 159.898 141.355 126.574C146.595 93.2427 150.931 66.2446 151.042 66.2684C151.153 66.2843 146.999 93.314 141.76 126.638C136.52 159.961 132.184 186.959 132.073 186.943Z" stroke="#E0E0E0" stroke-miterlimit="10"/>
<path d="M164.454 186.943C164.343 186.927 168.496 159.898 173.736 126.574C178.975 93.2427 183.311 66.2446 183.422 66.2684C183.533 66.2843 179.379 93.314 174.14 126.638C168.9 159.961 164.565 186.959 164.454 186.943Z" stroke="#E0E0E0" stroke-miterlimit="10"/>
<path d="M196.81 187.118C196.699 187.102 200.861 160.032 206.1 126.661C211.347 93.2823 215.691 66.2446 215.802 66.2684C215.913 66.2843 211.752 93.3537 206.504 126.733C201.265 160.096 196.921 187.141 196.81 187.118Z" stroke="#E0E0E0" stroke-miterlimit="10"/>
<path d="M114.024 143.149C114.548 145.027 115.071 146.906 115.594 148.785C115.966 150.116 117.932 150.845 118.907 149.656C123.489 144.076 128.871 139.431 135.085 135.753C137.281 134.453 135.284 131.029 133.088 132.329C126.596 136.173 120.897 141.024 116.109 146.85C117.211 147.144 118.321 147.437 119.422 147.722C118.899 145.844 118.376 143.965 117.853 142.087C117.163 139.637 113.335 140.684 114.024 143.149Z" fill="#CC2554"/>
<path d="M184.5 86.085C185.023 87.9636 185.546 89.8422 186.07 91.7208C186.442 93.0525 188.408 93.7817 189.383 92.5927C193.964 87.0124 199.347 82.3674 205.561 78.6894C207.757 77.3895 205.759 73.9652 203.564 75.2651C197.072 79.1095 191.372 83.9606 186.585 89.7867C187.687 90.08 188.796 90.3733 189.898 90.6586C189.375 88.78 188.852 86.9014 188.329 85.0228C187.639 82.5735 183.818 83.6198 184.5 86.085Z" fill="#CC2554"/>
<path d="M52.5218 112.972C53.045 114.851 53.5681 116.729 54.0913 118.608C54.4638 119.94 56.4296 120.669 57.4046 119.48C61.9862 113.899 67.3684 109.254 73.5828 105.577C75.7785 104.277 73.781 100.852 71.5853 102.152C65.0934 105.997 59.3942 110.848 54.6065 116.674C55.7083 116.967 56.818 117.26 57.9198 117.546C57.3967 115.667 56.8735 113.788 56.3504 111.91C55.6607 109.468 51.8322 110.507 52.5218 112.972Z" fill="#CC2554"/>
<path d="M26.8871 20.2702L19.5233 66.2684H246.034L252.146 20.2702H26.8871Z" fill="#CC2554"/>
<path d="M68.6208 42.3062C68.6208 45.136 66.33 47.4268 63.5002 47.4268C60.6704 47.4268 58.3796 45.136 58.3796 42.3062C58.3796 39.4764 60.6704 37.1856 63.5002 37.1856C66.33 37.1936 68.6208 39.4844 68.6208 42.3062Z" fill="#723630"/>
<path d="M222.017 42.3062C222.017 45.136 219.726 47.4268 216.896 47.4268C214.066 47.4268 211.776 45.136 211.776 42.3062C211.776 39.4764 214.066 37.1856 216.896 37.1856C219.726 37.1936 222.017 39.4844 222.017 42.3062Z" fill="#723630"/>
<path d="M215.287 39.3496C211.094 39.9996 206.362 37.2887 204.023 32.9211C201.677 28.5456 200.924 23.1872 201.954 18.2172C203.025 13.057 206.584 7.05655 212.124 5.28099C215.16 4.30601 223.008 4.19504 226.59 10.1796C229.396 14.8722 229.143 19.8739 229.143 19.969C229.135 20.1355 229.143 20.3019 229.167 20.4684L233.859 20.4842C233.867 20.4208 233.891 20.3574 233.891 20.2861C233.907 20.0245 234.287 13.7783 230.673 7.73824C226.028 -0.0139976 216.183 -1.01275 210.674 0.754884C204.198 2.83166 198.95 9.30771 197.302 17.2581C196.049 23.3061 196.977 29.8297 199.838 35.1802C202.803 40.7051 208.431 44.2166 214.035 44.2166C214.7 44.2166 215.358 44.169 216.016 44.0659C217.316 43.8678 218.204 42.655 218.006 41.355C217.8 40.0392 216.571 39.1514 215.287 39.3496Z" fill="#ED9389"/>
<path d="M61.5819 39.3496C57.3887 39.9996 52.6566 37.2887 50.3182 32.9211C47.9719 28.5456 47.2189 23.1872 48.2494 18.2172C49.3194 13.057 52.8785 7.05655 58.4192 5.28098C61.4551 4.30601 69.3025 4.19503 72.8853 10.1796C75.6913 14.8722 75.4377 19.8739 75.4377 19.969C75.4297 20.1355 75.4377 20.3019 75.4614 20.4684L80.154 20.4842C80.1619 20.4208 80.1857 20.3574 80.1857 20.2861C80.2016 20.0245 80.582 13.7783 76.9675 7.73823C72.3225 -0.0140008 62.4776 -1.02068 56.9686 0.746955C50.4926 2.82373 45.2452 9.29978 43.5964 17.2502C42.344 23.2982 43.2714 29.8218 46.1329 35.1723C49.0975 40.6971 54.7254 44.2086 60.3295 44.2086C60.9954 44.2086 61.6533 44.1611 62.3112 44.058C63.6111 43.8599 64.4989 42.6471 64.3008 41.3471C64.0947 40.0392 62.874 39.1514 61.5819 39.3496Z" fill="#ED9389"/>
</svg>
