<svg width="140" height="37" viewBox="0 0 140 37" fill="none" xmlns="http://www.w3.org/2000/svg">
<path d="M47.9723 25H45.4411L50.0497 11.9091H52.9773L57.5923 25H55.0611L51.5646 14.5938H51.4624L47.9723 25ZM48.0554 19.8672H54.9588V21.772H48.0554V19.8672ZM74.5392 11.9091V25H72.4299L66.2615 16.0831H66.1529V25H63.7814V11.9091H65.9036L72.0655 20.8324H72.1806V11.9091H74.5392ZM81.3675 25.1918C80.3832 25.1918 79.533 24.9872 78.8171 24.5781C78.1055 24.1648 77.5579 23.581 77.1744 22.8267C76.7908 22.0682 76.5991 21.1754 76.5991 20.1484C76.5991 19.1385 76.7908 18.2521 77.1744 17.4893C77.5621 16.7223 78.1033 16.1257 78.7979 15.6996C79.4925 15.2692 80.3086 15.054 81.2461 15.054C81.8512 15.054 82.4222 15.152 82.9592 15.348C83.5004 15.5398 83.9776 15.8381 84.391 16.2429C84.8086 16.6477 85.1367 17.1634 85.3754 17.7898C85.614 18.4119 85.7333 19.1534 85.7333 20.0142V20.7237H77.6857V19.1641H83.5153C83.511 18.7209 83.4151 18.3267 83.2276 17.9815C83.0401 17.6321 82.7781 17.3572 82.4414 17.157C82.109 16.9567 81.7212 16.8565 81.2781 16.8565C80.805 16.8565 80.3896 16.9716 80.0316 17.2017C79.6737 17.4276 79.3945 17.7259 79.1942 18.0966C78.9982 18.4631 78.8981 18.8658 78.8938 19.3047V20.6662C78.8938 21.2372 78.9982 21.7273 79.207 22.1364C79.4158 22.5412 79.7077 22.8523 80.0827 23.0696C80.4577 23.2827 80.8967 23.3892 81.3995 23.3892C81.7362 23.3892 82.0408 23.3423 82.3136 23.2486C82.5863 23.1506 82.8228 23.0078 83.0231 22.8203C83.2234 22.6328 83.3746 22.4006 83.4769 22.1236L85.6374 22.3665C85.5011 22.9375 85.2411 23.4361 84.8576 23.8622C84.4783 24.2841 83.9925 24.6122 83.4002 24.8466C82.8079 25.0767 82.1303 25.1918 81.3675 25.1918ZM89.6644 25L86.8903 15.1818H89.2489L90.9748 22.0852H91.0643L92.8285 15.1818H95.1616L96.9258 22.0469H97.0217L98.7219 15.1818H101.087L98.3065 25H95.8967L94.0558 18.3651H93.9215L92.0806 25H89.6644ZM111.706 25H107.27V11.9091H111.795C113.095 11.9091 114.211 12.1712 115.145 12.6953C116.082 13.2152 116.802 13.9631 117.305 14.9389C117.808 15.9148 118.059 17.0824 118.059 18.4418C118.059 19.8054 117.806 20.9773 117.299 21.9574C116.796 22.9375 116.069 23.6896 115.119 24.2138C114.173 24.7379 113.035 25 111.706 25ZM109.641 22.9482H111.591C112.503 22.9482 113.263 22.782 113.873 22.4496C114.482 22.1129 114.94 21.6122 115.247 20.9474C115.554 20.2784 115.707 19.4432 115.707 18.4418C115.707 17.4403 115.554 16.6094 115.247 15.9489C114.94 15.2841 114.486 14.7876 113.885 14.4595C113.289 14.1271 112.547 13.9609 111.661 13.9609H109.641V22.9482ZM123.036 25.1982C122.414 25.1982 121.853 25.0874 121.355 24.8658C120.86 24.6399 120.468 24.3075 120.178 23.8686C119.893 23.4297 119.75 22.8885 119.75 22.245C119.75 21.6911 119.852 21.233 120.057 20.8707C120.262 20.5085 120.541 20.2188 120.894 20.0014C121.248 19.7841 121.646 19.62 122.09 19.5092C122.537 19.3942 122.999 19.3111 123.477 19.2599C124.052 19.2003 124.519 19.147 124.877 19.1001C125.235 19.049 125.494 18.9723 125.656 18.87C125.823 18.7635 125.906 18.5994 125.906 18.3778V18.3395C125.906 17.858 125.763 17.4851 125.477 17.2209C125.192 16.9567 124.781 16.8246 124.244 16.8246C123.677 16.8246 123.227 16.9482 122.895 17.1953C122.567 17.4425 122.345 17.7344 122.23 18.071L120.07 17.7642C120.24 17.1676 120.521 16.669 120.914 16.2685C121.306 15.8636 121.785 15.5611 122.352 15.3608C122.919 15.1562 123.545 15.054 124.231 15.054C124.704 15.054 125.175 15.1094 125.644 15.2202C126.112 15.331 126.541 15.5142 126.928 15.7699C127.316 16.0213 127.627 16.3643 127.862 16.799C128.1 17.2337 128.22 17.777 128.22 18.429V25H125.995V23.6513H125.919C125.778 23.924 125.58 24.1797 125.324 24.4183C125.073 24.6527 124.755 24.8423 124.372 24.9872C123.992 25.1278 123.547 25.1982 123.036 25.1982ZM123.637 23.4979C124.101 23.4979 124.504 23.4062 124.845 23.223C125.186 23.0355 125.448 22.7884 125.631 22.4815C125.818 22.1747 125.912 21.8402 125.912 21.478V20.321C125.84 20.3807 125.716 20.4361 125.541 20.4872C125.371 20.5384 125.179 20.5831 124.966 20.6214C124.753 20.6598 124.542 20.6939 124.333 20.7237C124.124 20.7536 123.943 20.7791 123.79 20.8004C123.445 20.8473 123.136 20.924 122.863 21.0305C122.59 21.1371 122.375 21.2862 122.218 21.478C122.06 21.6655 121.981 21.9084 121.981 22.2067C121.981 22.6328 122.137 22.9545 122.448 23.1719C122.759 23.3892 123.155 23.4979 123.637 23.4979ZM131.633 28.6818C131.318 28.6818 131.026 28.6563 130.757 28.6051C130.493 28.5582 130.282 28.5028 130.124 28.4389L130.661 26.6364C130.998 26.7344 131.298 26.7813 131.563 26.777C131.827 26.7727 132.059 26.6896 132.259 26.5277C132.464 26.37 132.637 26.1058 132.777 25.7351L132.975 25.2045L129.415 15.1818H131.869L134.132 22.5966H134.235L136.504 15.1818H138.965L135.034 26.1889C134.85 26.7088 134.607 27.1541 134.305 27.5249C134.002 27.8999 133.632 28.1854 133.193 28.3814C132.758 28.5817 132.238 28.6818 131.633 28.6818Z" fill="#FCB427"/>
<path d="M21.439 0L24.4471 13.4411L38.1748 14.7303L26.3093 21.7493L29.3413 35.1905L19.0038 26.0944L7.13839 33.1134L12.6056 20.4601L2.26807 11.3641L15.9718 12.6533L21.439 0Z" fill="#FCB427"/>
<path d="M9.38253 1.50403L19.4813 10.8627L31.5138 4.15406L25.7124 16.6641L35.8112 26.0228L22.1313 24.3754L16.3299 36.8855L13.6799 23.3727L0 21.7254L12.0326 15.0168L9.38253 1.50403Z" fill="#FCB427"/>
<path d="M16.3514 12.0465C17.3932 12.4319 18.3164 13.1285 18.9699 14.1256C20.8934 17.0476 19.8857 21.4577 16.7179 23.9594C15.8728 24.6308 14.945 25.1026 14.0231 25.3634C16.0372 26.1067 18.5287 25.6884 20.6114 24.0337C23.7721 21.5265 24.7804 17.1303 22.8634 14.1999C21.4556 12.0728 18.8795 11.3201 16.3514 12.0465Z" fill="white"/>
</svg>
